<svg width="172" height="190" viewBox="0 0 172 190" fill="none" xmlns="http://www.w3.org/2000/svg">
<path d="M162.53 86.2086C157.071 80.2132 149.775 76.315 141.829 75.0921V70.3785C147.287 66.6566 151.149 60.7581 152.153 53.9396C168.865 47.0519 161.845 22.9718 152.468 13.0729C143.986 4.11867 132.139 -0.086771 119.968 0.00135614C114.149 0.00135614 109.305 4.26056 108.399 9.82227C97.121 11.2048 92.9483 23.3433 93.0926 33.2851C87.8903 32.0372 82.6027 32.2328 77.3013 32.2328C74.6231 11.8997 54.6049 -0.113452 35.4187 0.00135614C29.5991 0.00135614 24.7561 4.26056 23.8498 9.82227C5.67337 12.0501 0.967867 49.8869 19.8578 54.1065C20.8919 60.8095 24.6951 66.6068 30.0547 70.3021V75.1046C12.9673 77.7743 0.298828 92.4257 0.298828 109.908V143.511C0.298828 144.628 1.20355 145.533 2.32009 145.533C3.43664 145.533 4.34135 144.628 4.34135 143.511V121.696L17.2552 121.669V133.001C17.2552 134.117 18.1599 135.022 19.2765 135.022C20.393 135.022 21.2977 134.117 21.2977 133.001V108.985C21.2977 107.869 20.393 106.963 19.2765 106.963C18.1599 106.963 17.2552 107.869 17.2552 108.985V117.626L4.34135 117.653V109.908C4.34135 94.6478 15.2481 81.8298 30.0547 79.209C29.8287 86.9711 35.6722 93.8232 43.6671 93.8232C50.3696 93.8232 55.9523 88.958 57.0713 82.5785C59.1641 84.185 61.2836 84.8576 62.707 85.1386C63.7483 91.6236 67.4509 97.2278 72.6516 100.802V106.096C56.0364 108.721 43.7196 122.981 43.7196 140.011V172.727C43.7196 173.843 44.6243 174.748 45.7409 174.748C46.8574 174.748 47.7621 173.843 47.7621 172.727V151.541L60.2067 151.514V172.727C60.2067 173.843 61.1114 174.748 62.2279 174.748C63.3445 174.748 64.2492 173.843 64.2492 172.727V139.112C64.2492 137.995 63.3445 137.09 62.2279 137.09C61.1114 137.09 60.2067 137.995 60.2067 139.112V147.472L47.7621 147.498V140.011C47.7621 125.202 58.3152 112.762 72.6516 110.188C72.468 115.305 74.9493 120.186 79.4774 122.718L74.6401 150.959C74.5406 151.541 74.6999 152.137 75.0767 152.591L84.4444 163.889C85.2408 164.85 86.76 164.85 87.556 163.889L96.9237 152.591C97.2928 152.146 97.4537 151.565 97.366 150.994L92.9693 122.387C97.1946 119.745 99.388 115.066 99.2352 110.16C111.459 112.307 121.095 121.658 123.6 133.83C110.299 136.136 100.149 147.753 100.149 161.704C100.149 177.307 112.844 190.001 128.447 190.001C144.05 190.001 156.745 177.307 156.745 161.704C156.745 145.967 143.353 132.982 127.638 133.427C124.9 119.404 113.353 108.276 99.2356 106.066V100.816C100.343 100.054 101.396 99.1993 102.376 98.2428C106.141 94.5678 108.521 89.8304 109.24 84.6939C110.44 84.0495 112.504 82.7369 114.611 80.4468C114.729 87.8426 120.786 93.8236 128.217 93.8236C135.723 93.8236 141.83 87.7238 141.83 80.2265V79.1912C156.702 81.7627 167.66 94.5884 167.66 109.909V117.659H154.629V109.399C154.629 108.282 153.724 107.377 152.608 107.377C151.491 107.377 150.587 108.282 150.587 109.399V127.747C150.587 128.863 151.491 129.768 152.608 129.768C153.724 129.768 154.629 128.863 154.629 127.747V121.701H167.66V143.513C167.66 144.629 168.565 145.534 169.681 145.534C170.798 145.534 171.702 144.629 171.702 143.513V109.909C171.702 101.122 168.445 92.7046 162.53 86.2086ZM128.447 137.447C141.821 137.447 152.702 148.328 152.702 161.702C152.702 175.077 141.821 185.958 128.447 185.958C115.072 185.958 104.191 175.077 104.191 161.702C104.191 148.328 115.072 137.447 128.447 137.447ZM102.053 17.2439C104.18 14.9688 106.884 13.8195 110.32 13.7314C111.415 13.7031 112.289 12.8069 112.289 11.7105C112.289 7.48327 115.734 4.04429 119.968 4.04429C131.042 3.97637 141.802 7.69186 149.534 15.8533C156.736 23.4561 163.831 41.9397 152.425 49.302V35.1895C152.425 33.9889 151.432 33.3271 150.398 33.1683L131.782 33.22C124.991 32.8081 119.381 31.6746 114.087 27.5132C110.128 24.4004 104.124 27.4149 104.124 32.3909V37.8576C101.909 36.4981 99.5728 35.3763 97.1529 34.5011C97.0406 28.603 97.8555 21.7356 102.053 17.2439ZM19.5744 32.3905V49.8138C6.17222 44.3592 10.9869 14.1106 25.7704 13.731C26.8659 13.7027 27.7395 12.8065 27.7395 11.7101C27.7395 7.48286 31.1841 4.04388 35.4183 4.04388C52.5667 3.90765 70.828 14.4215 73.2875 32.6933C71.1639 33.3146 69.2951 34.5354 67.8753 36.1597V35.1891C67.8753 33.9885 66.8821 33.3267 65.8484 33.1679L47.2318 33.2196C40.4415 32.8077 34.8309 31.6741 29.5372 27.5128C25.5784 24.4004 19.5744 27.4141 19.5744 32.3905ZM53.2365 80.2253C53.2365 85.4939 48.9438 89.7798 43.6667 89.7798C38.3895 89.7798 34.0968 85.4935 34.0968 80.2253V72.5558C39.481 74.9057 45.7215 75.1911 51.2977 73.3425C51.7715 75.1152 52.422 76.7067 53.2365 78.1248V80.2253ZM50.3182 65.0266C50.3166 66.5349 50.3979 67.9623 50.5523 69.3165C48.3649 70.1097 46.0764 70.5176 43.7249 70.5176C32.637 70.5176 23.6169 61.4975 23.6169 50.4096V32.3905C23.6169 30.6676 25.6657 29.6108 27.0393 30.6906C33.5357 35.7975 40.4977 36.8656 47.0535 37.2589C47.0955 37.2613 47.1364 37.2625 47.18 37.2625L63.8332 37.216V42.0299C53.6768 44.1728 49.994 55.8125 50.3182 65.0266ZM93.2317 150.71L85.9996 159.431L78.7813 150.725L83.3344 124.144C85.2465 124.526 87.235 124.481 89.1285 124.014L93.2317 150.71ZM95.1923 111.11C95.1923 116.21 91.0431 120.36 85.943 120.36C80.8429 120.36 76.6937 116.21 76.6937 111.11V103.036C82.5368 105.544 89.3468 105.541 95.1923 103.041V111.11ZM105.424 81.941C105.131 92.5679 96.5785 100.888 85.9434 100.888C75.1935 100.888 66.4479 92.1427 66.4479 81.3928V62.0436C66.4479 61.0075 67.6874 60.4501 68.4611 61.1454C78.6006 70.2504 92.2886 73.6598 105.424 70.4452V81.941ZM116.156 69.431C116.14 69.4799 116.127 69.5288 116.115 69.5781C115.59 71.5161 114.773 73.3663 113.667 75.078C112.288 77.214 110.748 78.7102 109.466 79.7127V67.7573C109.466 65.8189 107.562 65.6455 106.168 66.0587C93.8231 69.6965 80.737 66.7354 71.1619 58.1373C67.845 55.1584 62.405 57.5855 62.405 62.0432V80.8899C57.7852 79.3731 55.506 74.7335 54.7553 70.2395C53.055 61.0286 55.3932 46.0085 67.1186 45.7062C68.2141 45.6779 69.0877 44.7816 69.0877 43.6853C69.0877 39.5991 72.4123 36.2745 76.4984 36.2745H84.2172C90.509 36.2745 96.6682 38.0169 102.029 41.3132C107.718 44.812 111.232 50.955 111.428 57.7452C111.459 58.8383 112.354 59.7083 113.448 59.7083C115.174 59.7083 116.625 61.0702 116.753 62.8085C116.919 65.08 116.713 67.3078 116.156 69.431ZM137.786 80.2253C137.786 85.4939 133.493 89.7798 128.216 89.7798C122.939 89.7798 118.646 85.4935 118.646 80.2253V74.383C118.884 73.8692 119.11 73.351 119.311 72.823C125.206 75.1778 131.95 75.118 137.786 72.6043V80.2253ZM128.275 70.5176C125.536 70.5176 122.9 69.9735 120.416 68.9119C120.815 66.8352 120.944 64.6903 120.784 62.5134C120.551 59.3347 118.302 56.7261 115.36 55.9224C114.795 50.1699 112.225 44.9045 108.167 40.9946V32.3905C108.167 30.6676 110.216 29.6108 111.589 30.6906C118.086 35.7975 125.048 36.8656 131.603 37.2589C131.645 37.2613 131.693 37.2625 131.729 37.2625L148.383 37.216V50.41C148.383 61.4975 139.363 70.5176 128.275 70.5176Z" fill="#E8DEDE"/>
</svg>
