<svg width="67" height="66" viewBox="0 0 67 66" fill="none" xmlns="http://www.w3.org/2000/svg">
<path d="M62.375 36.0938V33C62.375 32.7265 62.2663 32.4642 62.073 32.2708C61.8796 32.0774 61.6173 31.9688 61.3438 31.9688H58.25V28.875C58.25 28.6015 58.1413 28.3392 57.948 28.1458C57.7546 27.9524 57.4923 27.8438 57.2188 27.8438H51.0312V2.0625C51.0312 1.789 50.9226 1.52669 50.7292 1.3333C50.5358 1.1399 50.2735 1.03125 50 1.03125H2.5625C2.289 1.03125 2.02669 1.1399 1.8333 1.3333C1.6399 1.52669 1.53125 1.789 1.53125 2.0625V63.9375C1.53125 64.211 1.6399 64.4733 1.8333 64.6667C2.02669 64.8601 2.289 64.9688 2.5625 64.9688H62.375C63.1955 64.9688 63.9824 64.6428 64.5626 64.0626C65.1428 63.4824 65.4688 62.6955 65.4688 61.875V39.1875C65.4688 38.367 65.1428 37.5801 64.5626 36.9999C63.9824 36.4197 63.1955 36.0938 62.375 36.0938ZM60.3125 36.0938H44.6674C44.2608 36.0925 43.858 36.1719 43.4823 36.3275C43.1067 36.4831 42.7657 36.7118 42.4791 37.0002L39.5627 39.9166C39.4669 40.0125 39.353 40.0885 39.2277 40.1404C39.1025 40.1922 38.9682 40.2189 38.8326 40.2188H33.5V34.0312H60.3125V36.0938ZM56.1875 31.9688H32.4688C32.1952 31.9688 31.9329 32.0774 31.7395 32.2708C31.5461 32.4642 31.4375 32.7265 31.4375 33V40.2188H29.375V29.9062H56.1875V31.9688ZM3.59375 3.09375H48.9688V27.8438H28.3438C28.0702 27.8438 27.8079 27.9524 27.6145 28.1458C27.4211 28.3392 27.3125 28.6015 27.3125 28.875V40.2188C26.492 40.2188 25.7051 40.5447 25.1249 41.1249C24.5447 41.7051 24.2188 42.492 24.2188 43.3125V61.875C24.2222 62.2271 24.2864 62.576 24.4085 62.9062H3.59375V3.09375ZM63.4062 61.875C63.4062 62.1485 63.2976 62.4108 63.1042 62.6042C62.9108 62.7976 62.6485 62.9062 62.375 62.9062H27.3125C27.039 62.9062 26.7767 62.7976 26.5833 62.6042C26.3899 62.4108 26.2812 62.1485 26.2812 61.875V43.3125C26.2812 43.039 26.3899 42.7767 26.5833 42.5833C26.7767 42.3899 27.039 42.2812 27.3125 42.2812H38.8326C39.2392 42.2825 39.642 42.2031 40.0177 42.0475C40.3933 41.8919 40.7343 41.6632 41.0209 41.3748L43.9373 38.4584C44.0331 38.3625 44.147 38.2865 44.2723 38.2346C44.3975 38.1828 44.5318 38.1561 44.6674 38.1562H62.375C62.6485 38.1562 62.9108 38.2649 63.1042 38.4583C63.2976 38.6517 63.4062 38.914 63.4062 39.1875V61.875Z" fill="#E8DEDE"/>
<path d="M17 11.3438V9.28125C17 8.18723 16.5654 7.13802 15.7918 6.36443C15.0182 5.59085 13.969 5.15625 12.875 5.15625C11.781 5.15625 10.7318 5.59085 9.95818 6.36443C9.1846 7.13802 8.75 8.18723 8.75 9.28125V11.3438C7.92949 11.3438 7.14258 11.6697 6.56239 12.2499C5.9822 12.8301 5.65625 13.617 5.65625 14.4375V18.5625C5.65625 19.383 5.9822 20.1699 6.56239 20.7501C7.14258 21.3303 7.92949 21.6562 8.75 21.6562H17C17.8205 21.6562 18.6074 21.3303 19.1876 20.7501C19.7678 20.1699 20.0938 19.383 20.0938 18.5625V14.4375C20.0938 13.617 19.7678 12.8301 19.1876 12.2499C18.6074 11.6697 17.8205 11.3438 17 11.3438ZM10.8125 9.28125C10.8125 8.73424 11.0298 8.20964 11.4166 7.82284C11.8034 7.43605 12.328 7.21875 12.875 7.21875C13.422 7.21875 13.9466 7.43605 14.3334 7.82284C14.7202 8.20964 14.9375 8.73424 14.9375 9.28125V11.3438H10.8125V9.28125ZM18.0312 18.5625C18.0312 18.836 17.9226 19.0983 17.7292 19.2917C17.5358 19.4851 17.2735 19.5938 17 19.5938H8.75C8.4765 19.5938 8.21419 19.4851 8.0208 19.2917C7.8274 19.0983 7.71875 18.836 7.71875 18.5625V14.4375C7.71875 14.164 7.8274 13.9017 8.0208 13.7083C8.21419 13.5149 8.4765 13.4062 8.75 13.4062H17C17.2735 13.4062 17.5358 13.5149 17.7292 13.7083C17.9226 13.9017 18.0312 14.164 18.0312 14.4375V18.5625Z" fill="#E8DEDE"/>
<path d="M19.0625 23.7188H6.6875C6.414 23.7188 6.15169 23.8274 5.9583 24.0208C5.7649 24.2142 5.65625 24.4765 5.65625 24.75V33C5.65625 33.2735 5.7649 33.5358 5.9583 33.7292C6.15169 33.9226 6.414 34.0312 6.6875 34.0312H19.0625C19.336 34.0312 19.5983 33.9226 19.7917 33.7292C19.9851 33.5358 20.0938 33.2735 20.0938 33V24.75C20.0938 24.4765 19.9851 24.2142 19.7917 24.0208C19.5983 23.8274 19.336 23.7188 19.0625 23.7188ZM18.0312 31.9688H7.71875V25.7812H18.0312V31.9688Z" fill="#E8DEDE"/>
<path d="M5.65625 36.0938H20.0938V38.1562H5.65625V36.0938Z" fill="#E8DEDE"/>
<path d="M5.65625 44.3438H20.0938V46.4062H5.65625V44.3438Z" fill="#E8DEDE"/>
<path d="M5.65625 40.2188H20.0938V42.2812H5.65625V40.2188Z" fill="#E8DEDE"/>
<path d="M5.65625 48.4688H20.0938V50.5312H5.65625V48.4688Z" fill="#E8DEDE"/>
<path d="M5.65625 52.5938H20.0938V54.6562H5.65625V52.5938Z" fill="#E8DEDE"/>
<path d="M5.65625 56.7188H20.0938V58.7812H5.65625V56.7188Z" fill="#E8DEDE"/>
<path d="M46.9062 23.7188H45.875V8.25C45.875 7.9765 45.7664 7.71419 45.573 7.5208C45.3796 7.3274 45.1173 7.21875 44.8438 7.21875H40.7188C40.4452 7.21875 40.1829 7.3274 39.9895 7.5208C39.7961 7.71419 39.6875 7.9765 39.6875 8.25V23.7188H37.625V10.3125C37.625 10.039 37.5164 9.77669 37.323 9.5833C37.1296 9.3899 36.8673 9.28125 36.5938 9.28125H32.4688C32.1952 9.28125 31.9329 9.3899 31.7395 9.5833C31.5461 9.77669 31.4375 10.039 31.4375 10.3125V23.7188H29.375V15.4688C29.375 15.1952 29.2664 14.9329 29.073 14.7395C28.8796 14.5461 28.6173 14.4375 28.3438 14.4375H24.2188C23.9452 14.4375 23.6829 14.5461 23.4895 14.7395C23.2961 14.9329 23.1875 15.1952 23.1875 15.4688V23.7188H22.1562V25.7812H46.9062V23.7188ZM41.75 9.28125H43.8125V23.7188H41.75V9.28125ZM33.5 11.3438H35.5625V23.7188H33.5V11.3438ZM25.25 16.5H27.3125V23.7188H25.25V16.5Z" fill="#E8DEDE"/>
<path d="M11.8438 15.4688H13.9062V17.5312H11.8438V15.4688Z" fill="#E8DEDE"/>
<path d="M56.1875 47.4375H33.5C33.2265 47.4375 32.9642 47.5461 32.7708 47.7395C32.5774 47.9329 32.4688 48.1952 32.4688 48.4688V56.7188C32.4688 56.9923 32.5774 57.2546 32.7708 57.448C32.9642 57.6414 33.2265 57.75 33.5 57.75H56.1875C56.461 57.75 56.7233 57.6414 56.9167 57.448C57.1101 57.2546 57.2188 56.9923 57.2188 56.7188V48.4688C57.2188 48.1952 57.1101 47.9329 56.9167 47.7395C56.7233 47.5461 56.461 47.4375 56.1875 47.4375ZM55.1562 55.6875H34.5312V49.5H55.1562V55.6875Z" fill="#E8DEDE"/>
</svg>

