<svg width="190" height="190" viewBox="0 0 190 190" fill="none" xmlns="http://www.w3.org/2000/svg">
<path d="M74.2188 89.0625H26.7188C25.9314 89.0625 25.1763 88.7497 24.6195 88.193C24.0628 87.6362 23.75 86.8811 23.75 86.0938V50.4688C23.75 49.6814 24.0628 48.9263 24.6195 48.3695C25.1763 47.8128 25.9314 47.5 26.7188 47.5H74.2188C75.0061 47.5 75.7612 47.8128 76.318 48.3695C76.8747 48.9263 77.1875 49.6814 77.1875 50.4688V86.0938C77.1875 86.8811 76.8747 87.6362 76.318 88.193C75.7612 88.7497 75.0061 89.0625 74.2188 89.0625ZM29.6875 83.125H71.25V53.4375H29.6875V83.125Z" fill="#E9CFC4"/>
<path d="M74.2188 89.0626C73.7829 89.0637 73.3521 88.9688 72.9571 88.7846C72.562 88.6004 72.2123 88.3314 71.9329 87.9968L59.3751 72.9186L55.6018 77.4548C55.0983 78.0603 54.3749 78.441 53.5907 78.5131C52.8065 78.5852 52.0258 78.3428 51.4203 77.8393C50.8148 77.3357 50.4342 76.6123 50.3621 75.8281C50.29 75.044 50.5324 74.2633 51.0359 73.6578L57.0921 66.3814C57.3805 66.0619 57.7327 65.8066 58.1259 65.6318C58.5192 65.457 58.9447 65.3667 59.3751 65.3667C59.8054 65.3667 60.231 65.457 60.6242 65.6318C61.0175 65.8066 61.3697 66.0619 61.6581 66.3814L76.5018 84.1939C76.863 84.6275 77.0931 85.1551 77.1652 85.7149C77.2372 86.2746 77.1482 86.8433 76.9086 87.3542C76.669 87.8652 76.2887 88.2973 75.8124 88.5999C75.336 88.9025 74.7832 89.063 74.2188 89.0626Z" fill="#E9CFC4"/>
<path d="M62.3433 89.0625C61.9147 89.0635 61.4911 88.9711 61.102 88.7916C60.7128 88.6122 60.3675 88.35 60.09 88.0235L44.5308 69.8725L28.9716 88.0235C28.4504 88.5876 27.7309 88.9277 26.9642 88.9725C26.1975 89.0173 25.4433 88.7633 24.86 88.2637C24.2766 87.7642 23.9096 87.058 23.836 86.2935C23.7623 85.5291 23.9878 84.7658 24.465 84.1641L42.2775 63.3828C42.5642 63.071 42.9125 62.8221 43.3003 62.6518C43.6882 62.4815 44.1072 62.3936 44.5308 62.3936C44.9544 62.3936 45.3734 62.4815 45.7612 62.6518C46.1491 62.8221 46.4974 63.071 46.7841 63.3828L64.5966 84.1641C64.9653 84.5952 65.2028 85.1229 65.2809 85.6847C65.3591 86.2466 65.2747 86.8191 65.0376 87.3344C64.8005 87.8498 64.4208 88.2864 63.9433 88.5927C63.4658 88.899 62.9105 89.062 62.3433 89.0625V89.0625Z" fill="#E9CFC4"/>
<path d="M74.2188 166.25H26.7188C25.9314 166.25 25.1763 165.937 24.6195 165.38C24.0628 164.824 23.75 164.069 23.75 163.281V127.656C23.75 126.869 24.0628 126.114 24.6195 125.557C25.1763 125 25.9314 124.688 26.7188 124.688H74.2188C75.0061 124.688 75.7612 125 76.318 125.557C76.8747 126.114 77.1875 126.869 77.1875 127.656V163.281C77.1875 164.069 76.8747 164.824 76.318 165.38C75.7612 165.937 75.0061 166.25 74.2188 166.25ZM29.6875 160.312H71.25V130.625H29.6875V160.312Z" fill="#E9CFC4"/>
<path d="M44.5312 157.344C43.7439 157.344 42.9888 157.031 42.432 156.474C41.8753 155.917 41.5625 155.162 41.5625 154.375V136.562C41.5626 136.037 41.7022 135.521 41.9669 135.067C42.2317 134.613 42.6122 134.238 43.0696 133.979C43.5269 133.72 44.0447 133.588 44.5702 133.594C45.0956 133.601 45.6097 133.748 46.0602 134.018L60.9039 142.924C61.3428 143.188 61.706 143.561 61.9582 144.007C62.2103 144.453 62.3428 144.956 62.3428 145.469C62.3428 145.981 62.2103 146.484 61.9582 146.93C61.706 147.376 61.3428 147.749 60.9039 148.013L46.0602 156.919C45.5985 157.197 45.07 157.344 44.5312 157.344ZM47.5 141.808V149.129L53.6067 145.469L47.5 141.808Z" fill="#E9CFC4"/>
<path d="M172.188 56.4062H112.812C112.025 56.4062 111.27 56.0935 110.713 55.5367C110.157 54.98 109.844 54.2249 109.844 53.4375C109.844 52.6501 110.157 51.895 110.713 51.3383C111.27 50.7815 112.025 50.4688 112.812 50.4688H172.188C172.975 50.4688 173.73 50.7815 174.287 51.3383C174.843 51.895 175.156 52.6501 175.156 53.4375C175.156 54.2249 174.843 54.98 174.287 55.5367C173.73 56.0935 172.975 56.4062 172.188 56.4062Z" fill="#E8DEDE"/>
<path d="M172.188 68.2812H112.812C112.025 68.2812 111.27 67.9685 110.713 67.4117C110.157 66.855 109.844 66.0999 109.844 65.3125C109.844 64.5251 110.157 63.77 110.713 63.2133C111.27 62.6565 112.025 62.3438 112.812 62.3438H172.188C172.975 62.3438 173.73 62.6565 174.287 63.2133C174.843 63.77 175.156 64.5251 175.156 65.3125C175.156 66.0999 174.843 66.855 174.287 67.4117C173.73 67.9685 172.975 68.2812 172.188 68.2812Z" fill="#E8DEDE"/>
<path d="M154.375 80.1562H112.812C112.025 80.1562 111.27 79.8435 110.713 79.2867C110.157 78.73 109.844 77.9749 109.844 77.1875C109.844 76.4001 110.157 75.645 110.713 75.0883C111.27 74.5315 112.025 74.2188 112.812 74.2188H154.375C155.162 74.2188 155.917 74.5315 156.474 75.0883C157.031 75.645 157.344 76.4001 157.344 77.1875C157.344 77.9749 157.031 78.73 156.474 79.2867C155.917 79.8435 155.162 80.1562 154.375 80.1562Z" fill="#E8DEDE"/>
<path d="M172.188 133.594H112.812C112.025 133.594 111.27 133.281 110.713 132.724C110.157 132.167 109.844 131.412 109.844 130.625C109.844 129.838 110.157 129.083 110.713 128.526C111.27 127.969 112.025 127.656 112.812 127.656H172.188C172.975 127.656 173.73 127.969 174.287 128.526C174.843 129.083 175.156 129.838 175.156 130.625C175.156 131.412 174.843 132.167 174.287 132.724C173.73 133.281 172.975 133.594 172.188 133.594Z" fill="#E8DEDE"/>
<path d="M172.188 145.469H112.812C112.025 145.469 111.27 145.156 110.713 144.599C110.157 144.042 109.844 143.287 109.844 142.5C109.844 141.713 110.157 140.958 110.713 140.401C111.27 139.844 112.025 139.531 112.812 139.531H172.188C172.975 139.531 173.73 139.844 174.287 140.401C174.843 140.958 175.156 141.713 175.156 142.5C175.156 143.287 174.843 144.042 174.287 144.599C173.73 145.156 172.975 145.469 172.188 145.469Z" fill="#E8DEDE"/>
<path d="M154.375 157.344H112.812C112.025 157.344 111.27 157.031 110.713 156.474C110.157 155.917 109.844 155.162 109.844 154.375C109.844 153.588 110.157 152.833 110.713 152.276C111.27 151.719 112.025 151.406 112.812 151.406H154.375C155.162 151.406 155.917 151.719 156.474 152.276C157.031 152.833 157.344 153.588 157.344 154.375C157.344 155.162 157.031 155.917 156.474 156.474C155.917 157.031 155.162 157.344 154.375 157.344Z" fill="#E8DEDE"/>
<path d="M178.125 187.031H11.875C9.51292 187.031 7.24758 186.093 5.57733 184.423C3.90708 182.752 2.96875 180.487 2.96875 178.125V11.875C2.96875 9.51292 3.90708 7.24758 5.57733 5.57733C7.24758 3.90708 9.51292 2.96875 11.875 2.96875H178.125C180.487 2.96875 182.752 3.90708 184.423 5.57733C186.093 7.24758 187.031 9.51292 187.031 11.875V178.125C187.031 180.487 186.093 182.752 184.423 184.423C182.752 186.093 180.487 187.031 178.125 187.031ZM11.875 8.90625C11.0876 8.90625 10.3325 9.21903 9.77578 9.77578C9.21903 10.3325 8.90625 11.0876 8.90625 11.875V178.125C8.90625 178.912 9.21903 179.667 9.77578 180.224C10.3325 180.781 11.0876 181.094 11.875 181.094H178.125C178.912 181.094 179.667 180.781 180.224 180.224C180.781 179.667 181.094 178.912 181.094 178.125V11.875C181.094 11.0876 180.781 10.3325 180.224 9.77578C179.667 9.21903 178.912 8.90625 178.125 8.90625H11.875Z" fill="#E8DEDE"/>
<path d="M20.7812 20.7812C22.4208 20.7812 23.75 19.4521 23.75 17.8125C23.75 16.1729 22.4208 14.8438 20.7812 14.8438C19.1417 14.8438 17.8125 16.1729 17.8125 17.8125C17.8125 19.4521 19.1417 20.7812 20.7812 20.7812Z" fill="#E8DEDE"/>
<path d="M32.6562 20.7812C34.2958 20.7812 35.625 19.4521 35.625 17.8125C35.625 16.1729 34.2958 14.8438 32.6562 14.8438C31.0167 14.8438 29.6875 16.1729 29.6875 17.8125C29.6875 19.4521 31.0167 20.7812 32.6562 20.7812Z" fill="#E8DEDE"/>
<path d="M44.5312 20.7812C46.1708 20.7812 47.5 19.4521 47.5 17.8125C47.5 16.1729 46.1708 14.8438 44.5312 14.8438C42.8917 14.8438 41.5625 16.1729 41.5625 17.8125C41.5625 19.4521 42.8917 20.7812 44.5312 20.7812Z" fill="#E8DEDE"/>
<path d="M184.062 32.6562H5.9375C5.15014 32.6562 4.39503 32.3435 3.83828 31.7867C3.28153 31.23 2.96875 30.4749 2.96875 29.6875C2.96875 28.9001 3.28153 28.145 3.83828 27.5883C4.39503 27.0315 5.15014 26.7188 5.9375 26.7188H184.062C184.85 26.7188 185.605 27.0315 186.162 27.5883C186.718 28.145 187.031 28.9001 187.031 29.6875C187.031 30.4749 186.718 31.23 186.162 31.7867C185.605 32.3435 184.85 32.6562 184.062 32.6562Z" fill="#E8DEDE"/>
<path d="M95 187.031C94.2126 187.031 93.4575 186.718 92.9008 186.162C92.344 185.605 92.0312 184.85 92.0312 184.062V29.6875C92.0312 28.9001 92.344 28.145 92.9008 27.5883C93.4575 27.0315 94.2126 26.7188 95 26.7188C95.7874 26.7188 96.5425 27.0315 97.0992 27.5883C97.656 28.145 97.9688 28.9001 97.9688 29.6875V184.062C97.9688 184.85 97.656 185.605 97.0992 186.162C96.5425 186.718 95.7874 187.031 95 187.031Z" fill="#E8DEDE"/>
<path d="M95 109.844H5.9375C5.15014 109.844 4.39503 109.531 3.83828 108.974C3.28153 108.417 2.96875 107.662 2.96875 106.875C2.96875 106.088 3.28153 105.333 3.83828 104.776C4.39503 104.219 5.15014 103.906 5.9375 103.906H95C95.7874 103.906 96.5425 104.219 97.0992 104.776C97.656 105.333 97.9688 106.088 97.9688 106.875C97.9688 107.662 97.656 108.417 97.0992 108.974C96.5425 109.531 95.7874 109.844 95 109.844Z" fill="#E8DEDE"/>
</svg>
