<svg width="14" height="14" viewBox="0 0 14 14" fill="none" xmlns="http://www.w3.org/2000/svg">
<path d="M5.79297 7.60407C6.0521 7.95085 6.38271 8.23779 6.76237 8.44543C7.14202 8.65306 7.56185 8.77653 7.99337 8.80747C8.42489 8.83841 8.85801 8.77608 9.26335 8.62472C9.66869 8.47337 10.0368 8.23651 10.3426 7.93024L12.1528 6.11818C12.7024 5.54859 13.0065 4.7857 12.9996 3.99385C12.9928 3.20199 12.6755 2.44451 12.1161 1.88456C11.5567 1.32461 10.8 1.007 10.009 1.00011C9.2179 0.993233 8.45579 1.29764 7.88678 1.84777L6.84892 2.88065" stroke="#1062BF" stroke-width="1.2" stroke-linecap="round" stroke-linejoin="round"/>
<path d="M8.20678 6.39594C7.94765 6.04915 7.61704 5.76221 7.23738 5.55457C6.85773 5.34694 6.4379 5.22347 6.00638 5.19253C5.57486 5.16159 5.14174 5.22392 4.7364 5.37528C4.33106 5.52664 3.96298 5.76349 3.65712 6.06977L1.84691 7.88182C1.29734 8.45142 0.99324 9.2143 1.00011 10.0062C1.00699 10.798 1.32428 11.5555 1.88366 12.1154C2.44304 12.6754 3.19975 12.993 3.9908 12.9999C4.78185 13.0068 5.54396 12.7024 6.11297 12.1522L7.14479 11.1194" stroke="#1062BF" stroke-width="1.2" stroke-linecap="round" stroke-linejoin="round"/>
</svg>
