<svg width="190" height="190" viewBox="0 0 190 190" fill="none" xmlns="http://www.w3.org/2000/svg">
<path fill-rule="evenodd" clip-rule="evenodd" d="M131.441 114.666H58.5588C55.6598 114.666 53.3008 112.308 53.3008 109.409V5.26377C53.3008 2.36477 55.6587 0.00683594 58.5588 0.00683594H115.842C116.433 0.00683594 116.999 0.241739 117.417 0.659221L136.047 19.2901C136.464 19.7075 136.699 20.2731 136.699 20.8642V109.409C136.699 112.307 134.339 114.666 131.44 114.666H131.441ZM58.5588 4.45775C58.1235 4.45775 57.7539 4.82514 57.7539 5.26266V109.407C57.7539 109.844 58.1235 110.211 58.5588 110.211H131.441C131.878 110.211 132.245 109.845 132.245 109.407L132.244 21.7849L114.92 4.45775H58.5588V4.45775Z" fill="#DDD3D3"/>
<path fill-rule="evenodd" clip-rule="evenodd" d="M134.502 23.0897H115.84C114.611 23.0897 113.613 22.0922 113.613 20.8632V2.23343C113.613 0.258462 116.016 -0.741269 117.415 0.659244L135.84 19.0841C137.689 20.6917 136.392 23.0897 134.502 23.0897ZM118.069 18.6366H129.097L118.069 7.60837V18.6366Z" fill="#DDD3D3"/>
<path fill-rule="evenodd" clip-rule="evenodd" d="M95.0005 73.9804C83.0505 73.9804 73.3281 64.2581 73.3281 52.3081C73.3281 40.3581 83.0505 30.6357 95.0005 30.6357C106.95 30.6357 116.674 40.3581 116.674 52.3081C116.674 64.2581 106.95 73.9804 95.0005 73.9804V73.9804ZM95.0005 35.09C85.5052 35.09 77.7813 42.8151 77.7813 52.3092C77.7813 61.8044 85.5064 69.5284 95.0005 69.5284C104.495 69.5284 112.22 61.8033 112.22 52.3092C112.22 42.8151 104.495 35.09 95.0005 35.09V35.09Z" fill="#E9CFC4"/>
<path fill-rule="evenodd" clip-rule="evenodd" d="M116.866 87.0435H73.136C70.2047 87.0435 70.2047 82.5903 73.136 82.5903H116.866C119.796 82.5903 119.797 87.0435 116.866 87.0435Z" fill="#E9CFC4"/>
<path fill-rule="evenodd" clip-rule="evenodd" d="M116.865 101.748H73.1351C70.205 101.748 70.205 97.2944 73.1351 97.2944H116.865C119.795 97.2944 119.796 101.748 116.865 101.748Z" fill="#E9CFC4"/>
<path fill-rule="evenodd" clip-rule="evenodd" d="M163.345 153.223H26.6551C21.298 153.223 16.9395 148.864 16.9395 143.505V42.392C16.9395 37.0349 21.298 32.6764 26.6551 32.6764H55.5282C58.4594 32.6764 58.4594 37.1295 55.5282 37.1295H26.6562C23.7539 37.1295 21.3937 39.4908 21.3937 42.392V143.505C21.3937 146.407 23.7539 148.768 26.6562 148.768H163.347C166.249 148.768 168.608 146.407 168.608 143.505V42.392C168.608 39.4897 166.248 37.1295 163.347 37.1295L134.475 37.1284C131.543 37.1284 131.544 32.6753 134.475 32.6753H163.347C168.705 32.6753 173.062 37.0338 173.062 42.3909V143.504C173.062 148.863 168.704 153.222 163.347 153.222L163.345 153.223Z" fill="#DDD3D3"/>
<path fill-rule="evenodd" clip-rule="evenodd" d="M125.378 170.443H64.6231C63.394 170.443 62.3965 169.444 62.3965 168.217V150.995C62.3965 149.766 63.394 148.769 64.6231 148.769H125.381C126.61 148.769 127.607 149.767 127.607 150.995V168.217C127.607 169.444 126.609 170.443 125.38 170.443H125.378ZM66.8485 165.989H123.152V153.222L66.8485 153.223V165.989Z" fill="#DDD3D3"/>
<path fill-rule="evenodd" clip-rule="evenodd" d="M170.836 131.174H19.1664C16.2362 131.174 16.2362 126.721 19.1664 126.721H170.836C173.766 126.721 173.766 131.174 170.836 131.174Z" fill="#DDD3D3"/>
<path fill-rule="evenodd" clip-rule="evenodd" d="M156.725 131.174H33.2774C32.0483 131.174 31.0508 130.176 31.0508 128.948V48.2624C31.0508 47.0333 32.0483 46.0358 33.2774 46.0358H55.5297C58.461 46.0358 58.461 50.4889 55.5297 50.4889H35.5039V126.72H154.497V50.4878H134.474C131.543 50.4878 131.544 46.0347 134.474 46.0347H156.726C157.955 46.0347 158.953 47.0322 158.953 48.2612V128.947C158.953 130.176 157.955 131.174 156.726 131.174H156.725Z" fill="#DDD3D3"/>
<path fill-rule="evenodd" clip-rule="evenodd" d="M139.517 189.996H50.4824C49.2534 189.996 48.2559 188.997 48.2559 187.769V168.216C48.2559 166.987 49.2534 165.99 50.4824 165.99H139.517C140.747 165.99 141.744 166.988 141.744 168.216V187.769C141.744 188.998 140.747 189.996 139.517 189.996ZM52.7068 185.542H137.29V170.443H52.7068V185.542Z" fill="#DDD3D3"/>
<path fill-rule="evenodd" clip-rule="evenodd" d="M105.062 142.199H84.9398C82.0096 142.199 82.0096 137.746 84.9398 137.746H105.062C107.993 137.746 107.994 142.199 105.062 142.199Z" fill="#DDD3D3"/>
<path fill-rule="evenodd" clip-rule="evenodd" d="M89.191 58.9608C87.1426 58.9608 85.6352 55.0732 83.7794 51.9081C82.2976 49.3787 86.1384 47.1299 87.6202 49.657L89.9826 53.6894L103.176 45.9598C105.703 44.4814 107.957 48.32 105.425 49.804C103.279 51.062 90.5159 58.9619 89.191 58.9619V58.9608Z" fill="#E9CFC4"/>
</svg>
