<svg width="124" height="124" viewBox="0 0 124 124" fill="none" xmlns="http://www.w3.org/2000/svg">
<path d="M23.25 67.8125H65.875C66.3889 67.8125 66.8817 67.6084 67.245 67.245C67.6084 66.8817 67.8125 66.3889 67.8125 65.875V58.125C67.8125 57.6111 67.6084 57.1183 67.245 56.755C66.8817 56.3916 66.3889 56.1875 65.875 56.1875H23.25C22.7361 56.1875 22.2433 56.3916 21.88 56.755C21.5166 57.1183 21.3125 57.6111 21.3125 58.125V65.875C21.3125 66.3889 21.5166 66.8817 21.88 67.245C22.2433 67.6084 22.7361 67.8125 23.25 67.8125ZM25.1875 60.0625H63.9375V63.9375H25.1875V60.0625Z" fill="#DDD3D3"/>
<path d="M13.5625 71.6875H75.5625V75.5625H13.5625V71.6875Z" fill="#DDD3D3"/>
<path d="M13.5625 79.4375H75.5625V83.3125H13.5625V79.4375Z" fill="#DDD3D3"/>
<path d="M13.5625 87.1875H75.5625V91.0625H13.5625V87.1875Z" fill="#DDD3D3"/>
<path d="M73.625 94.9375H13.5625C13.0486 94.9375 12.5558 95.1416 12.1925 95.505C11.8291 95.8683 11.625 96.3611 11.625 96.875V112.375C11.625 112.889 11.8291 113.382 12.1925 113.745C12.5558 114.108 13.0486 114.312 13.5625 114.312H73.625C74.1389 114.312 74.6317 114.108 74.995 113.745C75.3584 113.382 75.5625 112.889 75.5625 112.375V96.875C75.5625 96.3611 75.3584 95.8683 74.995 95.505C74.6317 95.1416 74.1389 94.9375 73.625 94.9375ZM71.6875 110.438H15.5V98.8125H71.6875V110.438Z" fill="#DDD3D3"/>
<path d="M114.312 84.3219V19.375C114.312 17.3196 113.496 15.3483 112.043 13.8949C110.589 12.4415 108.618 11.625 106.562 11.625H87.1875V9.6875C87.1875 7.63207 86.371 5.66083 84.9176 4.20742C83.4642 2.75402 81.4929 1.9375 79.4375 1.9375H9.6875C7.63207 1.9375 5.66083 2.75402 4.20742 4.20742C2.75402 5.66083 1.9375 7.63207 1.9375 9.6875V114.312C1.9375 116.368 2.75402 118.339 4.20742 119.793C5.66083 121.246 7.63207 122.062 9.6875 122.062H79.4375C81.0558 122.057 82.6315 121.544 83.9429 120.596C85.2543 119.648 86.2353 118.312 86.7477 116.777C88.8715 118.638 91.3444 120.059 94.0225 120.955C96.7005 121.852 99.5301 122.207 102.347 121.999C105.163 121.792 107.91 121.026 110.428 119.747C112.946 118.468 115.184 116.7 117.012 114.548C118.84 112.395 120.222 109.901 121.077 107.209C121.932 104.517 122.242 101.683 121.991 98.8697C121.74 96.0568 120.932 93.3219 119.613 90.8244C118.295 88.3268 116.493 86.1164 114.312 84.3219ZM106.562 15.5C107.59 15.5 108.576 15.9083 109.303 16.635C110.029 17.3617 110.438 18.3473 110.438 19.375V81.7896C106.74 79.8867 102.566 79.1122 98.432 79.5624C94.2984 80.0126 90.3882 81.6677 87.1875 84.3219V73.625H104.625C105.139 73.625 105.632 73.4209 105.995 73.0575C106.358 72.6942 106.562 72.2014 106.562 71.6875V56.1875C106.562 55.6736 106.358 55.1808 105.995 54.8175C105.632 54.4541 105.139 54.25 104.625 54.25H87.1875V50.375H106.562V46.5H87.1875V42.625H106.562V38.75H87.1875V34.875H106.562V31H87.1875V27.125H106.562V23.25H87.1875V15.5H106.562ZM87.1875 69.75V58.125H102.688V69.75H87.1875ZM79.4375 118.188H9.6875C8.65979 118.188 7.67416 117.779 6.94746 117.053C6.22076 116.326 5.8125 115.34 5.8125 114.312V9.6875C5.8125 8.65979 6.22076 7.67416 6.94746 6.94746C7.67416 6.22076 8.65979 5.8125 9.6875 5.8125H79.4375C80.4652 5.8125 81.4508 6.22076 82.1775 6.94746C82.9042 7.67416 83.3125 8.65979 83.3125 9.6875V88.5438C80.791 92.1182 79.4374 96.3854 79.4374 100.76C79.4374 105.134 80.791 109.401 83.3125 112.976V114.312C83.3125 115.34 82.9042 116.326 82.1775 117.053C81.4508 117.779 80.4652 118.188 79.4375 118.188ZM100.75 118.188C97.3012 118.188 93.9298 117.165 91.0622 115.249C88.1947 113.333 85.9597 110.609 84.6399 107.423C83.3201 104.237 82.9747 100.731 83.6476 97.3481C84.3204 93.9656 85.9811 90.8585 88.4198 88.4198C90.8585 85.9811 93.9656 84.3204 97.3481 83.6476C100.731 82.9747 104.237 83.3201 107.423 84.6399C110.609 85.9597 113.333 88.1947 115.249 91.0622C117.165 93.9298 118.188 97.3012 118.188 100.75C118.182 105.373 116.344 109.805 113.075 113.075C109.805 116.344 105.373 118.182 100.75 118.188Z" fill="#DDD3D3"/>
<path d="M31 52.3116H58.125C58.6389 52.3116 59.1317 52.1074 59.495 51.7441C59.8584 51.3807 60.0625 50.8879 60.0625 50.3741V44.5616C60.0587 41.6716 59.2469 38.8402 57.719 36.3872C56.191 33.9341 54.0076 31.9571 51.4154 30.6794C53.3968 29.2334 54.87 27.1978 55.6242 24.8638C56.3785 22.5298 56.3752 20.017 55.6147 17.685C54.8543 15.353 53.3757 13.3213 51.3905 11.8806C49.4054 10.4399 47.0154 9.66406 44.5625 9.66406C42.1096 9.66406 39.7196 10.4399 37.7345 11.8806C35.7493 13.3213 34.2707 15.353 33.5103 17.685C32.7498 20.017 32.7465 22.5298 33.5008 24.8638C34.255 27.1978 35.7282 29.2334 37.7096 30.6794C35.1174 31.9571 32.934 33.9341 31.406 36.3872C29.8781 38.8402 29.0663 41.6716 29.0625 44.5616V50.3741C29.0625 50.8879 29.2666 51.3807 29.63 51.7441C29.9933 52.1074 30.4861 52.3116 31 52.3116ZM36.8125 21.3116C36.8125 19.7788 37.267 18.2804 38.1186 17.0059C38.9702 15.7314 40.1806 14.7381 41.5967 14.1515C43.0128 13.5649 44.5711 13.4114 46.0744 13.7105C47.5778 14.0095 48.9587 14.7476 50.0426 15.8315C51.1264 16.9153 51.8646 18.2963 52.1636 19.7996C52.4626 21.303 52.3091 22.8612 51.7226 24.2774C51.136 25.6935 50.1426 26.9039 48.8682 27.7554C47.5937 28.607 46.0953 29.0616 44.5625 29.0616C42.5071 29.0616 40.5358 28.245 39.0824 26.7916C37.629 25.3382 36.8125 23.367 36.8125 21.3116ZM32.9375 44.5616C32.9375 41.4784 34.1623 38.5215 36.3424 36.3414C38.5225 34.1613 41.4794 32.9366 44.5625 32.9366C47.6456 32.9366 50.6025 34.1613 52.7826 36.3414C54.9627 38.5215 56.1875 41.4784 56.1875 44.5616V48.4366H32.9375V44.5616Z" fill="#DDD3D3"/>
<path d="M96.7807 105.665L92.433 101.317L89.6934 104.057L95.5059 109.869C95.8691 110.233 96.3619 110.437 96.8757 110.437H96.9396C97.2049 110.428 97.4654 110.364 97.7053 110.251C97.9452 110.137 98.1593 109.976 98.3346 109.776L111.897 94.2763L108.979 91.7227L96.7807 105.665Z" fill="#DDD3D3"/>
</svg>